<svg width="20" height="20" viewBox="0 0 20 20" fill="none" xmlns="http://www.w3.org/2000/svg">
<path d="M4 11.874C2.27477 11.4299 1 9.86384 1 8C1 7.6547 1.04375 7.31962 1.12602 7M4 11.874C4 13.3469 5.19401 14.6669 6.6669 14.6669C8.26705 14.6669 12.0876 14.5075 12.0876 16.641V18.7745M4 11.874C4 10.4011 5.19401 9.33309 6.6669 9.33309M7.86981 6.00393C8.42408 5.04391 9.65166 4.71498 10.6117 5.26925C11.5717 5.82352 11.9006 7.0511 11.3464 8.01112M10.2948 11.1399C10.8043 12.1244 12.0155 12.5095 13 12C13.1841 12.3535 13.4547 12.7071 13.8133 13M3.75296 4.19822C4.14538 4.06958 4.56457 4 5 4C5.16933 4 5.3362 4.01052 5.5 4.03095C6.11775 2.28316 7.54072 1 9.50004 1C11.2124 1 12.7898 1.96516 13.5503 3.37295C13.98 3.13528 14.4743 3 15.0001 3C16.6569 3 18.0001 4.34315 18.0001 6C18.0001 7.04349 17.4673 7.96254 16.659 8.5C17.7344 8.84372 18.5338 9.85132 18.5338 11.0408C18.5338 12.1085 17.9063 13.0297 17 13.4557" stroke="#001A72" stroke-width="1.5" stroke-linecap="round" stroke-linejoin="round"/>
</svg>
