<svg width="980" height="959" viewBox="0 0 980 959" fill="none" xmlns="http://www.w3.org/2000/svg">
<path d="M917.04 637.007C915.651 674.523 907.141 711.806 891.625 747.237C859.436 820.705 800.731 876.804 726.396 905.23C503.735 990.45 243.907 905.925 112.488 814.279C111.967 817.173 101.546 872.115 101.083 875.067C159.266 914.898 444.047 953.282 498.062 953.282C580.097 953.282 659.065 939.677 729.29 912.756C805.652 883.52 865.92 825.857 898.977 750.422C914.782 714.412 923.467 676.607 925.03 638.513C922.367 637.934 919.704 637.413 917.04 636.949V637.007Z" fill="#F1DBDD"/>
<path d="M977.597 684.77L847.046 356.453C847.046 356.453 1003.77 87.8253 880.625 58.0099C757.484 28.1366 630.639 188.561 630.639 188.561C630.639 188.561 395.589 106.467 306.085 173.624C306.085 173.624 156.835 -35.3152 67.3306 5.73165C-22.2314 46.7785 99.1723 342.559 99.1723 342.559C99.1723 342.559 -85.6252 613.85 56.1571 770.511C197.939 927.23 731.432 1054.08 977.655 684.712L977.597 684.77Z" fill="#0E0E0E"/>
<path d="M522.146 537.198C522.146 537.198 441.789 505.067 389.626 545.245L449.894 637.644L522.204 537.256L522.146 537.198Z" fill="#F1DBDD"/>
</svg>
